<svg width="20" height="20" viewBox="0 0 20 20" fill="none" xmlns="http://www.w3.org/2000/svg">
<path fill-rule="evenodd" clip-rule="evenodd" d="M3.39898 3.39898C3.73093 3.06704 4.26912 3.06704 4.60107 3.39898L10 8.79794L15.399 3.39898C15.7309 3.06704 16.2691 3.06704 16.6011 3.39898C16.933 3.73093 16.933 4.26912 16.6011 4.60107L11.2021 10L16.6011 15.399C16.933 15.7309 16.933 16.2691 16.6011 16.6011C16.2691 16.933 15.7309 16.933 15.399 16.6011L10 11.2021L4.60107 16.6011C4.26912 16.933 3.73093 16.933 3.39898 16.6011C3.06704 16.2691 3.06704 15.7309 3.39898 15.399L8.79794 10L3.39898 4.60107C3.06704 4.26912 3.06704 3.73093 3.39898 3.39898Z" fill="white"/>
</svg>
