<svg width="48" height="48" viewBox="0 0 48 48" fill="none" xmlns="http://www.w3.org/2000/svg">
<mask id="mask0_1_415" style="mask-type:alpha" maskUnits="userSpaceOnUse" x="0" y="0" width="48" height="48">
<rect width="48" height="48" fill="#D9D9D9"/>
</mask>
<g mask="url(#mask0_1_415)">
<path d="M24 44C21.2333 44 18.6333 43.475 16.2 42.425C13.7667 41.375 11.65 39.95 9.85 38.15C8.05 36.35 6.625 34.2333 5.575 31.8C4.525 29.3667 4 26.7667 4 24C4 21.2333 4.525 18.6333 5.575 16.2C6.625 13.7667 8.05 11.65 9.85 9.85C11.65 8.05 13.7667 6.625 16.2 5.575C18.6333 4.525 21.2333 4 24 4C26.7667 4 29.3667 4.525 31.8 5.575C34.2333 6.625 36.35 8.05 38.15 9.85C39.95 11.65 41.375 13.7667 42.425 16.2C43.475 18.6333 44 21.2333 44 24C44 26.7667 43.475 29.3667 42.425 31.8C41.375 34.2333 39.95 36.35 38.15 38.15C36.35 39.95 34.2333 41.375 31.8 42.425C29.3667 43.475 26.7667 44 24 44ZM24 40C28.4667 40 32.25 38.45 35.35 35.35C38.45 32.25 40 28.4667 40 24C40 23.7667 39.9917 23.525 39.975 23.275C39.9583 23.025 39.95 22.8167 39.95 22.65C39.7833 23.6167 39.3333 24.4167 38.6 25.05C37.8667 25.6833 37 26 36 26H32C30.9 26 29.9583 25.6083 29.175 24.825C28.3917 24.0417 28 23.1 28 22V20H20V16C20 14.9 20.3917 13.9583 21.175 13.175C21.9583 12.3917 22.9 12 24 12H26C26 11.2333 26.2083 10.5583 26.625 9.975C27.0417 9.39167 27.55 8.91667 28.15 8.55C27.4833 8.38333 26.8083 8.25 26.125 8.15C25.4417 8.05 24.7333 8 24 8C19.5333 8 15.75 9.55 12.65 12.65C9.55 15.75 8 19.5333 8 24H18C20.2 24 22.0833 24.7833 23.65 26.35C25.2167 27.9167 26 29.8 26 32V34H20V39.5C20.6667 39.6667 21.325 39.7917 21.975 39.875C22.625 39.9583 23.3 40 24 40Z" fill="#FF3F4E"/>
</g>
</svg>
