<svg width="48" height="48" viewBox="0 0 48 48" fill="none" xmlns="http://www.w3.org/2000/svg">
<mask id="mask0_1_410" style="mask-type:alpha" maskUnits="userSpaceOnUse" x="0" y="0" width="48" height="48">
<rect width="48" height="48" fill="#D9D9D9"/>
</mask>
<g mask="url(#mask0_1_410)">
<path d="M31 22C31.8333 22 32.5417 21.7083 33.125 21.125C33.7083 20.5417 34 19.8333 34 19C34 18.1667 33.7083 17.4583 33.125 16.875C32.5417 16.2917 31.8333 16 31 16C30.1667 16 29.4583 16.2917 28.875 16.875C28.2917 17.4583 28 18.1667 28 19C28 19.8333 28.2917 20.5417 28.875 21.125C29.4583 21.7083 30.1667 22 31 22ZM17 22C17.8333 22 18.5417 21.7083 19.125 21.125C19.7083 20.5417 20 19.8333 20 19C20 18.1667 19.7083 17.4583 19.125 16.875C18.5417 16.2917 17.8333 16 17 16C16.1667 16 15.4583 16.2917 14.875 16.875C14.2917 17.4583 14 18.1667 14 19C14 19.8333 14.2917 20.5417 14.875 21.125C15.4583 21.7083 16.1667 22 17 22ZM24 35C26.2667 35 28.325 34.3583 30.175 33.075C32.025 31.7917 33.3667 30.1 34.2 28H13.8C14.6333 30.1 15.975 31.7917 17.825 33.075C19.675 34.3583 21.7333 35 24 35ZM24 44C21.2333 44 18.6333 43.475 16.2 42.425C13.7667 41.375 11.65 39.95 9.85 38.15C8.05 36.35 6.625 34.2333 5.575 31.8C4.525 29.3667 4 26.7667 4 24C4 21.2333 4.525 18.6333 5.575 16.2C6.625 13.7667 8.05 11.65 9.85 9.85C11.65 8.05 13.7667 6.625 16.2 5.575C18.6333 4.525 21.2333 4 24 4C26.7667 4 29.3667 4.525 31.8 5.575C34.2333 6.625 36.35 8.05 38.15 9.85C39.95 11.65 41.375 13.7667 42.425 16.2C43.475 18.6333 44 21.2333 44 24C44 26.7667 43.475 29.3667 42.425 31.8C41.375 34.2333 39.95 36.35 38.15 38.15C36.35 39.95 34.2333 41.375 31.8 42.425C29.3667 43.475 26.7667 44 24 44ZM24 40C28.4667 40 32.25 38.45 35.35 35.35C38.45 32.25 40 28.4667 40 24C40 19.5333 38.45 15.75 35.35 12.65C32.25 9.55 28.4667 8 24 8C19.5333 8 15.75 9.55 12.65 12.65C9.55 15.75 8 19.5333 8 24C8 28.4667 9.55 32.25 12.65 35.35C15.75 38.45 19.5333 40 24 40Z" fill="#FF3F4E"/>
</g>
</svg>
