<svg width="19" height="15" viewBox="0 0 19 15" fill="none" xmlns="http://www.w3.org/2000/svg">
<path d="M6.90686 15H0V10.0411C0 8.03454 0.172057 6.45559 0.516171 5.30428C0.876671 4.13651 1.53213 3.09211 2.48254 2.17105C3.43295 1.25 4.64554 0.526316 6.12031 0L7.47219 2.86184C6.09573 3.32237 5.10436 3.96382 4.49806 4.78618C3.90815 5.60855 3.59681 6.7023 3.56404 8.06743H6.90686V15ZM18.4347 15H11.5278V10.0411C11.5278 8.01809 11.6999 6.43092 12.044 5.27961C12.4045 4.12829 13.0599 3.09211 14.0103 2.17105C14.9771 1.25 16.1897 0.526316 17.6481 0L19 2.86184C17.6235 3.32237 16.6322 3.96382 16.0259 4.78618C15.436 5.60855 15.1246 6.7023 15.0919 8.06743H18.4347V15Z" fill="#FF3F4E"/>
</svg>
