<svg width="48" height="48" viewBox="0 0 48 48" fill="none" xmlns="http://www.w3.org/2000/svg">
<mask id="mask0_1_405" style="mask-type:alpha" maskUnits="userSpaceOnUse" x="0" y="0" width="48" height="48">
<rect width="48" height="48" fill="#D9D9D9"/>
</mask>
<g mask="url(#mask0_1_405)">
<path d="M20.6 39.6C22.1 36.5667 24.1 34.5417 26.6 33.525C29.1 32.5083 31.2333 32 33 32C33.7667 32 34.5167 32.0667 35.25 32.2C35.9833 32.3333 36.7 32.5 37.4 32.7C38.2 31.4333 38.8333 30.0667 39.3 28.6C39.7667 27.1333 40 25.6 40 24C40 19.5333 38.45 15.75 35.35 12.65C32.25 9.55 28.4667 8 24 8C19.5333 8 15.75 9.55 12.65 12.65C9.55 15.75 8 19.5333 8 24C8 25.5 8.19167 26.9333 8.575 28.3C8.95833 29.6667 9.53333 30.9333 10.3 32.1C11.6667 31.4333 13.0833 30.9167 14.55 30.55C16.0167 30.1833 17.5 30 19 30C20.0667 30 21.0917 30.0917 22.075 30.275C23.0583 30.4583 24.0333 30.7 25 31C24.2333 31.4 23.5083 31.8667 22.825 32.4C22.1417 32.9333 21.5 33.5 20.9 34.1C20.5 34.0333 20.1583 34 19.875 34H19C17.9333 34 16.875 34.1167 15.825 34.35C14.775 34.5833 13.7667 34.9333 12.8 35.4C13.8667 36.4667 15.0583 37.3583 16.375 38.075C17.6917 38.7917 19.1 39.3 20.6 39.6ZM24 44C21.2333 44 18.6333 43.475 16.2 42.425C13.7667 41.375 11.65 39.95 9.85 38.15C8.05 36.35 6.625 34.2333 5.575 31.8C4.525 29.3667 4 26.7667 4 24C4 21.2333 4.525 18.6333 5.575 16.2C6.625 13.7667 8.05 11.65 9.85 9.85C11.65 8.05 13.7667 6.625 16.2 5.575C18.6333 4.525 21.2333 4 24 4C26.7667 4 29.3667 4.525 31.8 5.575C34.2333 6.625 36.35 8.05 38.15 9.85C39.95 11.65 41.375 13.7667 42.425 16.2C43.475 18.6333 44 21.2333 44 24C44 26.7667 43.475 29.3667 42.425 31.8C41.375 34.2333 39.95 36.35 38.15 38.15C36.35 39.95 34.2333 41.375 31.8 42.425C29.3667 43.475 26.7667 44 24 44ZM19 27C17.0667 27 15.4167 26.3167 14.05 24.95C12.6833 23.5833 12 21.9333 12 20C12 18.0667 12.6833 16.4167 14.05 15.05C15.4167 13.6833 17.0667 13 19 13C20.9333 13 22.5833 13.6833 23.95 15.05C25.3167 16.4167 26 18.0667 26 20C26 21.9333 25.3167 23.5833 23.95 24.95C22.5833 26.3167 20.9333 27 19 27ZM19 23C19.8333 23 20.5417 22.7083 21.125 22.125C21.7083 21.5417 22 20.8333 22 20C22 19.1667 21.7083 18.4583 21.125 17.875C20.5417 17.2917 19.8333 17 19 17C18.1667 17 17.4583 17.2917 16.875 17.875C16.2917 18.4583 16 19.1667 16 20C16 20.8333 16.2917 21.5417 16.875 22.125C17.4583 22.7083 18.1667 23 19 23ZM33 29C31.6 29 30.4167 28.5167 29.45 27.55C28.4833 26.5833 28 25.4 28 24C28 22.6 28.4833 21.4167 29.45 20.45C30.4167 19.4833 31.6 19 33 19C34.4 19 35.5833 19.4833 36.55 20.45C37.5167 21.4167 38 22.6 38 24C38 25.4 37.5167 26.5833 36.55 27.55C35.5833 28.5167 34.4 29 33 29Z" fill="#FF3F4E"/>
</g>
</svg>
