<svg width="314" height="15" viewBox="0 0 314 15" fill="none" xmlns="http://www.w3.org/2000/svg">
<path d="M313 3.33333L302.601 9.73483C292.552 15.9212 279.732 15.2903 270.339 8.14717L269.488 7.49999C259.774 0.113225 246.325 0.113226 236.612 7.49999V7.49999C226.898 14.8868 213.449 14.8868 203.736 7.49999V7.49999C194.022 0.113222 180.573 0.113221 170.86 7.49999V7.49999C161.146 14.8868 147.697 14.8868 137.983 7.49998V7.49998C128.27 0.113216 114.821 0.113215 105.107 7.49998V7.49998C95.3935 14.8867 81.8854 14.8412 72.1715 7.45444V7.45444C62.5281 0.121297 49.1181 0.0760858 39.4747 7.40923V7.40923C29.7195 14.8274 16.1884 14.7325 6.53812 7.17834L0.999997 2.84311" stroke="#FF3F4E" stroke-width="2"/>
</svg>
